<?xml version="1.0" encoding="UTF-8" standalone="no"?>
<svg xmlns:ffdec="https://www.free-decompiler.com/flash" xmlns:xlink="http://www.w3.org/1999/xlink" ffdec:objectType="shape" height="47.55px" width="25.5px" xmlns="http://www.w3.org/2000/svg">
  <g transform="matrix(1.0, 0.0, 0.0, 1.0, 12.75, 0.0)">
    <path d="M-5.1 34.8 L0.0 29.7 5.1 34.8 0.0 39.9 -5.1 34.8 M-10.4 34.8 L0.0 45.2 10.4 34.85 1.4 25.85 1.4 1.5 -1.4 1.5 -1.4 25.85 -10.4 34.8 M-2.95 0.0 L3.0 0.0 3.0 25.1 12.75 34.85 0.0 47.55 -12.75 34.8 -2.95 25.05 -2.95 0.0" fill="#26232a" fill-rule="evenodd" stroke="none"/>
    <path d="M-5.1 34.8 L0.0 39.9 5.1 34.8 0.0 29.7 -5.1 34.8 M-10.4 34.8 L-1.4 25.85 -1.4 1.5 1.4 1.5 1.4 25.85 10.4 34.85 0.0 45.2 -10.4 34.8" fill="#4d4d49" fill-rule="evenodd" stroke="none"/>
  </g>
</svg>
