<?xml version="1.0" encoding="UTF-8" standalone="no"?>
<svg xmlns:ffdec="https://www.free-decompiler.com/flash" xmlns:xlink="http://www.w3.org/1999/xlink" ffdec:objectType="shape" height="57.55px" width="40.1px" xmlns="http://www.w3.org/2000/svg">
  <g transform="matrix(1.0, 0.0, 0.0, 1.0, 0.0, 0.0)">
    <path d="M40.1 12.5 L39.1 12.5 39.1 14.05 39.9 14.05 39.9 26.75 39.0 26.75 39.0 36.15 39.9 36.15 39.9 44.65 39.8 44.65 39.8 46.55 38.1 46.55 38.1 44.75 37.4 44.75 37.4 44.95 35.9 44.95 35.9 50.75 34.2 50.75 34.2 49.85 32.0 49.85 32.0 50.95 30.3 50.95 30.3 48.95 29.0 48.95 29.0 52.05 27.0 52.05 27.0 54.05 26.2 54.05 26.2 55.25 24.1 55.25 24.1 55.95 23.2 55.95 23.2 52.05 21.1 52.05 21.1 53.95 20.8 53.95 20.8 56.05 20.4 56.05 20.4 57.45 19.7 57.45 19.7 56.05 15.9 56.05 15.9 57.55 14.9 57.55 14.9 56.05 14.7 56.05 14.7 53.95 12.4 53.95 12.4 52.05 10.7 52.05 10.7 50.35 10.2 50.35 10.2 47.15 9.0 47.15 9.0 52.15 7.8 52.15 7.8 51.55 7.1 51.55 7.1 54.15 6.2 54.15 6.2 50.25 5.0 50.25 5.0 48.65 4.2 48.65 4.2 52.15 2.9 52.15 2.9 48.05 1.6 48.05 1.6 43.55 1.0 43.55 1.0 20.2 0.0 20.2 0.0 0.0 40.1 0.0 40.1 12.5" fill="#ff3300" fill-rule="evenodd" stroke="none"/>
  </g>
</svg>
