<?xml version="1.0" encoding="UTF-8" standalone="no"?>
<svg xmlns:ffdec="https://www.free-decompiler.com/flash" xmlns:xlink="http://www.w3.org/1999/xlink" ffdec:objectType="shape" height="32.0px" width="128.0px" xmlns="http://www.w3.org/2000/svg">
  <g transform="matrix(1.0, 0.0, 0.0, 1.0, 0.0, 0.0)">
    <path d="M128.0 22.55 Q127.0 23.2 127.0 24.5 127.0 25.75 127.8 26.35 L128.0 26.5 128.0 29.0 Q128.0 32.0 125.0 32.0 L120.05 32.0 16.1 32.0 15.3 32.0 Q14.65 31.2 13.25 31.2 11.85 31.2 11.25 32.0 L3.0 32.0 Q0.0 32.0 0.0 29.0 L0.0 20.05 0.0 12.05 0.0 10.95 Q0.45 10.7 0.75 10.25 1.25 9.5 1.25 8.7 1.25 7.15 0.0 6.6 L0.0 3.0 Q0.0 0.0 3.0 0.0 L16.1 0.0 120.05 0.0 125.0 0.0 Q128.0 0.0 128.0 3.0 L128.0 12.05 128.0 20.05 128.0 22.55" fill="#6b6a6a" fill-rule="evenodd" stroke="none"/>
  </g>
</svg>
