<?xml version="1.0" encoding="UTF-8" standalone="no"?>
<svg xmlns:ffdec="https://www.free-decompiler.com/flash" xmlns:xlink="http://www.w3.org/1999/xlink" ffdec:objectType="shape" height="17.5px" width="17.5px" xmlns="http://www.w3.org/2000/svg">
  <g transform="matrix(1.0, 0.0, 0.0, 1.0, 8.75, 8.75)">
    <path d="M0.1 -8.0 Q3.3 -7.95 5.6 -5.7 L5.65 -5.65 Q8.0 -3.3 8.0 0.0 L0.1 0.0 0.1 -8.0" fill="#ffffff" fill-rule="evenodd" stroke="none"/>
    <path d="M8.0 0.0 Q8.0 3.35 5.65 5.7 3.35 7.95 0.1 8.0 L0.0 8.0 Q-3.3 8.0 -5.65 5.7 -8.0 3.35 -8.0 0.0 -8.0 -3.3 -5.65 -5.65 L-5.6 -5.7 Q-3.25 -8.0 0.0 -8.0 L0.1 -8.0 0.1 0.0 8.0 0.0" fill="#6abf56" fill-rule="evenodd" stroke="none"/>
    <path d="M8.0 0.0 Q8.0 3.35 5.65 5.7 3.35 7.95 0.1 8.0 L0.0 8.0 Q-3.3 8.0 -5.65 5.7 -8.0 3.35 -8.0 0.0 -8.0 -3.3 -5.65 -5.65 L-5.6 -5.7 Q-3.25 -8.0 0.0 -8.0 L0.1 -8.0 Q3.3 -7.95 5.6 -5.7 L5.65 -5.65 Q8.0 -3.3 8.0 0.0 Z" fill="none" stroke="#000000" stroke-linecap="round" stroke-linejoin="round" stroke-width="1.5"/>
  </g>
</svg>
