<?xml version="1.0" encoding="UTF-8" standalone="no"?>
<svg xmlns:ffdec="https://www.free-decompiler.com/flash" xmlns:xlink="http://www.w3.org/1999/xlink" ffdec:objectType="shape" height="182.0px" width="485.05px" xmlns="http://www.w3.org/2000/svg">
  <g transform="matrix(1.0, 0.0, 0.0, 1.0, 0.0, 0.0)">
    <path d="M0.0 2.0 Q0.0 0.0 2.85 0.0 L468.9 0.0 485.05 0.0 485.05 144.9 485.05 182.0 468.9 182.0 0.0 182.0 0.0 144.9 0.0 2.0 M1.0 2.0 L1.0 144.9 1.0 181.0 468.9 181.0 484.0 181.0 484.0 144.9 484.0 1.0 468.9 1.0 2.4 1.0 Q1.0 1.0 1.0 2.0" fill="#272727" fill-opacity="0.9882353" fill-rule="evenodd" stroke="none"/>
    <path d="M484.0 181.0 L410.05 181.0 1.0 181.0 1.0 80.45 1.0 22.0 410.05 22.0 484.0 22.0 484.0 80.45 484.0 181.0" fill="#000000" fill-opacity="0.7019608" fill-rule="evenodd" stroke="none"/>
    <path d="M484.0 21.0 L410.05 21.0 1.0 21.0 1.0 2.0 Q1.0 1.0 2.4 1.0 L410.05 1.0 484.0 1.0 484.0 21.0" fill="#000000" fill-opacity="0.8" fill-rule="evenodd" stroke="none"/>
    <path d="M2.95 22.0 L0.0 22.0 0.0 21.0 2.95 21.0 481.4 21.0 485.0 21.0 485.0 22.0 481.4 22.0 2.95 22.0" fill="#292929" fill-rule="evenodd" stroke="none"/>
  </g>
</svg>
