<?xml version="1.0" encoding="UTF-8" standalone="no"?>
<svg xmlns:ffdec="https://www.free-decompiler.com/flash" xmlns:xlink="http://www.w3.org/1999/xlink" ffdec:objectType="shape" height="15.15px" width="15.3px" xmlns="http://www.w3.org/2000/svg">
  <g transform="matrix(1.0, 0.0, 0.0, 1.0, 7.65, 7.6)">
    <path d="M0.0 -5.35 Q-2.25 -5.35 -3.8 -3.75 -5.4 -2.2 -5.4 0.05 -5.4 2.25 -3.8 3.85 L-2.85 4.65 -2.85 7.2 Q-4.25 6.6 -5.4 5.45 -7.65 3.2 -7.65 0.05 -7.65 -3.1 -5.4 -5.35 -3.15 -7.6 0.0 -7.6 3.15 -7.6 5.4 -5.35 7.65 -3.1 7.65 0.05 7.65 3.2 5.4 5.45 3.75 7.1 1.65 7.55 L1.65 5.2 Q2.85 4.8 3.8 3.85 5.4 2.25 5.4 0.05 5.4 -2.2 3.8 -3.75 2.2 -5.35 0.0 -5.35" fill="url(#gradient0)" fill-rule="evenodd" stroke="none"/>
  </g>
  <defs>
    <radialGradient cx="0" cy="0" fx="41.6" fy="0" gradientTransform="matrix(-0.006, 0.001, 0.0021, 0.0123, -3.5, 6.2)" gradientUnits="userSpaceOnUse" id="gradient0" r="819.2" spreadMethod="pad">
      <stop offset="0.0" stop-color="#000000" stop-opacity="0.0"/>
      <stop offset="1.0" stop-color="#ffffff"/>
    </radialGradient>
  </defs>
</svg>
